<svg width="14" height="14" viewBox="0 0 14 14" fill="none" xmlns="http://www.w3.org/2000/svg">
<path d="M6.48326 11.7035C6.80105 11.5117 7.19894 11.5117 7.51673 11.7035L10.121 13.2753C10.8783 13.7324 11.8125 13.0534 11.6116 12.192L10.9205 9.22943C10.8361 8.86793 10.959 8.48947 11.2395 8.24642L13.5419 6.25185C14.2105 5.67264 13.8531 4.57438 12.9717 4.4996L9.94253 4.2426C9.57295 4.21125 9.25109 3.97791 9.10635 3.63641L7.92072 0.838998C7.57613 0.0259696 6.42387 0.0259681 6.07928 0.838996L4.89365 3.63641C4.74891 3.97791 4.42704 4.21125 4.05747 4.2426L1.0283 4.4996C0.146872 4.57438 -0.210538 5.67264 0.458059 6.25185L2.76046 8.24642C3.04102 8.48947 3.16387 8.86793 3.07954 9.22943L2.38841 12.192C2.18745 13.0534 3.12168 13.7324 3.879 13.2753L6.48326 11.7035Z" fill="#cccccc"/>
</svg>
