<svg width="14" height="14" viewBox="0 0 14 14" fill="none" xmlns="http://www.w3.org/2000/svg">
<path d="M13.549 6.24852C14.2163 5.66943 13.8597 4.57289 12.9795 4.49699L9.94115 4.23499C9.57231 4.20318 9.25121 3.9702 9.10656 3.62941L7.9212 0.836855C7.57627 0.0242536 6.42446 0.0245683 6.07998 0.837357L4.89365 3.63641C4.74891 3.97791 4.42705 4.21125 4.05747 4.2426L1.0283 4.4996C0.146874 4.57438 -0.210536 5.67264 0.458061 6.25185L2.76046 8.24642C3.04103 8.48947 3.16387 8.86793 3.07954 9.22943L2.38841 12.192C2.18745 13.0534 3.12168 13.7324 3.879 13.2753L6.48326 11.7035C6.80106 11.5117 7.19894 11.5117 7.51674 11.7035L10.1248 13.2776C10.8816 13.7344 11.8154 13.0567 11.6157 12.1956L10.9277 9.22811C10.844 8.8673 10.9666 8.48979 11.2463 8.24701L13.549 6.24852ZM7.4825 10.1251C7.183 9.94397 7 9.61943 7 9.26941V5.34112C7 4.62058 7.98901 4.41989 8.26986 5.08344C8.36531 5.30893 8.57757 5.4632 8.82151 5.48436L9.72221 5.5625C10.6023 5.63885 10.9583 6.73531 10.291 7.31415L9.7641 7.77126C9.48379 8.01442 9.36118 8.39281 9.44561 8.75416L9.60154 9.42156C9.80293 10.2835 8.86768 10.9628 8.11027 10.5048L7.4825 10.1251Z" fill="#F0C550"/>
</svg>
